<mxfile host="app.diagrams.net" modified="2024-04-16T11:13:31.043Z" agent="Mozilla/5.0 (Windows NT 10.0; Win64; x64) AppleWebKit/537.36 (KHTML, like Gecko) Chrome/123.0.0.0 Safari/537.36" version="24.2.5" etag="dl2yc6V1mTXo75kjMmU_" type="github">
  <diagram name="페이지-1" id="IZxz3hqRnVaUZ01q2NEi">
    <mxGraphModel>
      <root>
        <mxCell id="0" />
        <mxCell id="1" parent="0" />
      </root>
    </mxGraphModel>
  </diagram>
</mxfile>
